<svg xmlns="http://www.w3.org/2000/svg" width="17" height="20" fill="none" viewBox="0 0 17 20"><path fill="#8C236C" d="M0.499512 17V15H2.49951V8C2.49951 6.61667 2.91618 5.3875 3.74951 4.3125C4.58285 3.2375 5.66618 2.53333 6.99951 2.2V1.5C6.99951 1.08333 7.14535 0.729167 7.43701 0.4375C7.72868 0.145833 8.08285 0 8.49951 0C8.91618 0 9.27034 0.145833 9.56201 0.4375C9.85368 0.729167 9.99951 1.08333 9.99951 1.5V2.2C11.3328 2.53333 12.4162 3.2375 13.2495 4.3125C14.0828 5.3875 14.4995 6.61667 14.4995 8V15H16.4995V17H0.499512ZM8.49951 20C7.94951 20 7.47868 19.8042 7.08701 19.4125C6.69534 19.0208 6.49951 18.55 6.49951 18H10.4995C10.4995 18.55 10.3037 19.0208 9.91201 19.4125C9.52035 19.8042 9.04951 20 8.49951 20ZM4.49951 15H12.4995V8C12.4995 6.9 12.1078 5.95833 11.3245 5.175C10.5412 4.39167 9.59951 4 8.49951 4C7.39951 4 6.45785 4.39167 5.67451 5.175C4.89118 5.95833 4.49951 6.9 4.49951 8V15Z"/></svg>