<svg xmlns="http://www.w3.org/2000/svg" width="25" height="26" fill="none" viewBox="0 0 25 26"><path fill="#F9F4F4" d="M23.6988 17.5101L17.7938 14.8639C17.5262 14.7492 17.2343 14.7031 16.9444 14.7298C16.6546 14.7564 16.3759 14.8549 16.1338 15.0164C16.1092 15.0321 16.0858 15.0497 16.0638 15.0689L12.9775 17.6939C12.9455 17.7113 12.9098 17.7211 12.8734 17.7224C12.837 17.7237 12.8007 17.7165 12.7675 17.7014C10.7838 16.7439 8.72876 14.7014 7.76751 12.7451C7.75151 12.7124 7.74319 12.6765 7.74319 12.6401C7.74319 12.6037 7.75151 12.5678 7.76751 12.5351L10.4013 9.41011C10.4202 9.38698 10.4377 9.36277 10.4538 9.33761C10.613 9.09449 10.7092 8.81554 10.7336 8.52594C10.7581 8.23635 10.71 7.94522 10.5938 7.67886L7.96627 1.78386C7.81705 1.43587 7.559 1.14566 7.23084 0.956787C6.90268 0.767915 6.52212 0.690569 6.14626 0.736356C4.5128 0.951101 3.01341 1.75328 1.92829 2.99298C0.843179 4.23268 0.24659 5.82508 0.250015 7.47261C0.250015 17.2601 8.21251 25.2226 18 25.2226C19.6475 25.2258 21.2397 24.6291 22.4794 23.544C23.719 22.459 24.5213 20.9597 24.7363 19.3264C24.782 18.9523 24.7057 18.5734 24.5187 18.2462C24.3318 17.9189 24.0442 17.6608 23.6988 17.5101ZM18 23.7226C9.04002 23.7226 1.75001 16.4326 1.75001 7.47261C1.74584 6.19002 2.20877 4.94978 3.05232 3.98362C3.89587 3.01746 5.06233 2.39147 6.33376 2.22261H6.36251C6.41289 2.22355 6.4618 2.23968 6.50284 2.2689C6.54389 2.29813 6.57514 2.33906 6.59251 2.38636L9.23001 8.27511C9.24506 8.30785 9.25284 8.34345 9.25284 8.37948C9.25284 8.41551 9.24506 8.45112 9.23001 8.48386L6.59127 11.6164C6.57158 11.6387 6.55361 11.6625 6.53752 11.6876C6.3724 11.9397 6.27516 12.2301 6.25524 12.5308C6.23531 12.8315 6.29336 13.1322 6.42376 13.4039C7.53251 15.6739 9.82001 17.9439 12.115 19.0526C12.3883 19.1823 12.6905 19.2389 12.9921 19.217C13.2938 19.1951 13.5846 19.0954 13.8363 18.9276C13.86 18.9114 13.8838 18.8939 13.9063 18.8751L16.9913 16.2501C17.0217 16.2337 17.0554 16.2241 17.0899 16.222C17.1244 16.2198 17.159 16.2252 17.1913 16.2376L23.0975 18.8839C23.1458 18.9044 23.1863 18.9396 23.2135 18.9845C23.2406 19.0293 23.253 19.0816 23.2488 19.1339C23.0808 20.4059 22.4554 21.5732 21.4894 22.4177C20.5235 23.2622 19.2831 23.7261 18 23.7226Z"/></svg>