<svg xmlns="http://www.w3.org/2000/svg" width="18" height="19" fill="none" viewBox="0 0 18 19"><path fill="#1F1F29" fill-rule="evenodd" d="M0 8.47266C0 4.70166 -1.19209e-07 2.81566 1.172 1.64466C2.343 0.472656 4.229 0.472656 8 0.472656H10C13.771 0.472656 15.657 0.472656 16.828 1.64466C18 2.81566 18 4.70166 18 8.47266V10.4727C18 14.2437 18 16.1297 16.828 17.3007C15.657 18.4727 13.771 18.4727 10 18.4727H8C4.229 18.4727 2.343 18.4727 1.172 17.3007C-1.19209e-07 16.1297 0 14.2437 0 10.4727V8.47266ZM15 4.97266C15 5.37048 14.842 5.75201 14.5607 6.03332C14.2794 6.31462 13.8978 6.47266 13.5 6.47266C13.1022 6.47266 12.7206 6.31462 12.4393 6.03332C12.158 5.75201 12 5.37048 12 4.97266C12 4.57483 12.158 4.1933 12.4393 3.912C12.7206 3.63069 13.1022 3.47266 13.5 3.47266C13.8978 3.47266 14.2794 3.63069 14.5607 3.912C14.842 4.1933 15 4.57483 15 4.97266ZM11 10.4727C11 11.0031 10.7893 11.5118 10.4142 11.8869C10.0391 12.2619 9.53043 12.4727 9 12.4727C8.46957 12.4727 7.96086 12.2619 7.58579 11.8869C7.21071 11.5118 7 11.0031 7 10.4727C7 9.94222 7.21071 9.43352 7.58579 9.05844C7.96086 8.68337 8.46957 8.47266 9 8.47266C9.53043 8.47266 10.0391 8.68337 10.4142 9.05844C10.7893 9.43352 11 9.94222 11 10.4727ZM13 10.4727C13 11.5335 12.5786 12.5509 11.8284 13.3011C11.0783 14.0512 10.0609 14.4727 9 14.4727C7.93913 14.4727 6.92172 14.0512 6.17157 13.3011C5.42143 12.5509 5 11.5335 5 10.4727C5 9.41179 5.42143 8.39437 6.17157 7.64423C6.92172 6.89408 7.93913 6.47266 9 6.47266C10.0609 6.47266 11.0783 6.89408 11.8284 7.64423C12.5786 8.39437 13 9.41179 13 10.4727Z" clip-rule="evenodd"/></svg>