<svg xmlns="http://www.w3.org/2000/svg" width="26" height="27" fill="none" viewBox="0 0 26 27"><path fill="#F9F4F4" d="M20.335 15.8014L16.335 13.8014C16.2168 13.7427 16.0853 13.7161 15.9536 13.7244C15.8219 13.7328 15.6948 13.7757 15.585 13.8489L13.625 15.1552C12.6327 14.6472 11.8255 13.8399 11.3175 12.8477L12.625 10.8889C12.6982 10.7791 12.7411 10.652 12.7495 10.5203C12.7578 10.3886 12.7312 10.257 12.6725 10.1389L10.6725 6.13891C10.6103 6.01376 10.5144 5.90848 10.3956 5.83493C10.2767 5.76138 10.1397 5.7225 9.99999 5.72266C8.74021 5.72266 7.53203 6.2231 6.64123 7.1139C5.75044 8.0047 5.24999 9.21288 5.24999 10.4727C5.2533 13.3227 6.38695 16.0551 8.40225 18.0704C10.4175 20.0857 13.1499 21.2193 16 21.2227C17.2598 21.2227 18.468 20.7222 19.3587 19.8314C20.2495 18.9406 20.75 17.7324 20.75 16.4727C20.75 16.3333 20.7112 16.1966 20.6379 16.078C20.5646 15.9595 20.4597 15.8637 20.335 15.8014ZM16 19.7227C13.5477 19.7197 11.1966 18.7442 9.46254 17.0101C7.72847 15.276 6.75297 12.925 6.74999 10.4727C6.75006 9.68828 7.03381 8.93039 7.54888 8.33882C8.06395 7.74724 8.77558 7.36191 9.55249 7.25391L11.135 10.4189L9.83624 12.3664C9.768 12.4691 9.72614 12.5871 9.71437 12.7098C9.70259 12.8326 9.72127 12.9563 9.76874 13.0702C10.4584 14.7099 11.7628 16.0142 13.4025 16.7039C13.5163 16.7514 13.6401 16.7701 13.7628 16.7583C13.8856 16.7465 14.0035 16.7046 14.1062 16.6364L16.0537 15.3377L19.2187 16.9202C19.1107 17.6971 18.7254 18.4087 18.1338 18.9238C17.5423 19.4388 16.7844 19.7226 16 19.7227ZM13 0.722657C10.7897 0.722193 8.6173 1.29632 6.69585 2.3887C4.7744 3.48109 3.16993 5.05421 2.03985 6.95373C0.909764 8.85325 0.29289 11.0139 0.249744 13.2238C0.206599 15.4336 0.738664 17.6167 1.79374 19.5589L0.341242 23.9177C0.238412 24.226 0.223489 24.5569 0.298146 24.8732C0.372802 25.1896 0.534086 25.4789 0.763923 25.7087C0.993759 25.9386 1.28306 26.0998 1.59941 26.1745C1.91576 26.2492 2.24665 26.2342 2.55499 26.1314L6.91374 24.6789C8.61997 25.6048 10.5151 26.1289 12.4546 26.2112C14.3942 26.2935 16.3269 25.9318 18.1054 25.1537C19.8839 24.3756 21.4613 23.2017 22.7172 21.7214C23.9731 20.2412 24.8745 18.4937 25.3525 16.6121C25.8305 14.7306 25.8726 12.7648 25.4755 10.8646C25.0784 8.96437 24.2526 7.17991 23.0611 5.64728C21.8697 4.11465 20.344 2.87432 18.6004 2.02088C16.8567 1.16743 14.9413 0.723407 13 0.722657ZM13 24.7227C11.0224 24.7231 9.07964 24.2023 7.36749 23.2127C7.25335 23.147 7.12414 23.1122 6.99249 23.1114C6.91179 23.1119 6.83166 23.125 6.75499 23.1502L2.08124 24.7077C2.03719 24.7223 1.98992 24.7245 1.94473 24.7138C1.89954 24.7031 1.85821 24.6801 1.82537 24.6473C1.79254 24.6144 1.7695 24.5731 1.75883 24.5279C1.74817 24.4827 1.7503 24.4355 1.76499 24.3914L3.32249 19.7227C3.35619 19.6218 3.36804 19.5149 3.35727 19.4091C3.34649 19.3032 3.31333 19.2009 3.25999 19.1089C2.01906 16.9653 1.52026 14.472 1.84098 12.016C2.1617 9.55992 3.284 7.27836 5.03378 5.52526C6.78355 3.77216 9.06298 2.64553 11.5184 2.32015C13.9739 1.99477 16.4681 2.48884 18.614 3.7257C20.76 4.96256 22.4378 6.87306 23.3872 9.16082C24.3365 11.4486 24.5043 13.9857 23.8645 16.3785C23.2247 18.7714 21.8131 20.8862 19.8487 22.3949C17.8843 23.9036 15.4769 24.7218 13 24.7227Z"/></svg>