<svg xmlns="http://www.w3.org/2000/svg" id="Layer_6" data-name="Layer 6" viewBox="0 0 612 792"><defs><style>.cls-1{font-family:BaskOldFace,&apos;Baskerville Old Face&apos;;font-size:23px}.cls-1,.cls-2{fill:#de71ac}.cls-3{fill:#8c236c}</style></defs><g id="Layer_5" data-name="Layer 5"><g><path d="M263.39,250.26c3.51,1.33,7.3,2.18,10.47,4.07,9.63,5.74,15.03,14.48,16.94,25.47,1.42,8.22,1.53,16.48,.17,24.66-1.35,8.11-3.21,16.13-4.9,24.44,5.83,2.63,10.94,6.76,15.32,11.85,5.72,6.64,10.77,15.7,14.62,23.49,3.62,7.32,6.64,14.94,9.91,22.43,.23,.52,.42,1.06,.53,1.62,.38,1.91-.51,3.59-2.14,4.16-1.66,.58-3.38-.14-4.22-1.98-.83-1.81-1.45-3.71-2.2-5.55-4.75-11.7-10.67-24.68-17.99-35.04-5-7.08-10.06-11.58-16.31-14.45-.51,1.45-.98,2.91-1.53,4.33-4.83,12.46-9.71,24.91-14.5,37.38-5.04,13.12-7.62,26.67-6.72,40.75,.4,6.27,1.49,12.47,4.66,18.03,1,1.75,2.5,3.25,3.93,4.72,1.67,1.71,2,3.56,.66,5.1-1.24,1.42-3.23,1.53-4.98,.2-4.53-3.44-6.83-8.34-8.47-13.55-3.32-10.6-3.32-21.43-2.01-32.36,1.74-14.53,7.44-27.8,12.79-41.22,3.29-8.25,6.25-16.63,9.38-24.95,.35-.92,.66-1.66-.56-2.27-8.35-4.21-16.48-8.79-23.84-14.92-.59,.71-1.09,1.29-1.57,1.89-39.02,48.87-78.04,97.75-117.06,146.62-.8,1-1.64,1.97-2.5,2.93-1.27,1.4-2.95,1.46-4.54,.95-1.15-.37-1.74-3.18-1.12-4.67,.38-.91,.94-1.76,1.47-2.6,34.32-54.58,68.65-109.15,102.98-163.72,.3-.48,.57-.99,.91-1.45,3.54-4.63,5.1-9.56,4.85-15.66-.32-7.66,1.85-15.07,6.52-21.48,3.55-4.88,8.18-8.05,14.27-8.88,.27-.04,.52-.22,.77-.34h6Zm16.05,75.25c3.98-13.99,6.85-27.79,4.97-42.14-1.24-9.52-4.96-17.65-13.47-22.88-4.97-3.06-10.29-4.43-16.1-2.48-8.77,2.94-12.64,16.05-11.92,21.91,3.09-1.86,6.15-4.33,9.65-5.68,9.34-3.6,18.05,3.87,15.93,13.63-.88,4.04-2.43,8.02-4.29,11.72-2.06,4.09-4.81,7.83-7.33,11.83,6.75,5.72,14.44,9.98,22.56,14.09Zm-29.41-21.08c2.58-3.16,5.12-5.97,7.28-9.04,1.41-2,2.51-4.32,3.28-6.65,1.11-3.36-.8-6.66-4.1-7.55-2.5-.68-4.81,.1-6.46,1.9-2.2,2.4-4.08,5.1-6.02,7.72-.28,.37-.3,1.1-.17,1.58,1.21,4.29,3.14,8.22,6.18,12.04Zm-10.94-4.1c-2.22,6.43-4.29,12.45-6.37,18.46,.17,.1,.34,.21,.51,.31,3.88-3.29,7.75-6.59,11.56-9.83-1.9-2.98-3.65-5.72-5.7-8.95Z" class="cls-3"/><path d="M306.08,447.6c-.84-1.22-2.1-1.64-2.4-2.56-.55-1.7-.83-3.66-.83-5.86,0-2.46,.41-5.43,1.22-8.89,.81-3.46,1.91-7.09,3.3-10.89,1.39-3.8,2.94-7.52,4.64-11.17,1.7-3.64,8.07-14.29,8.08-17.77,0-8.57-2.9-4.87,1.37,.34,1.52,1.85,1.4-2.34,2.6-2.34,1,0,1.41-2.94,1.85-1.79,.44,1.15,3.01,2.73,3.44,6.98,.14,1.41-.33,3.17-.98,5.27-.66,2.1-1.56,4.34-2.71,6.72s-2.49,4.72-4.01,7c-1.52,2.28-3.18,4.38-4.99,6.29-1.81,1.91-3.63,3.42-5.46,4.52-.68,1.63-1.23,3.33-1.65,5.11-.42,1.78-.72,3.5-.9,5.15-.18,1.65-.28,3.16-.28,4.52,0,.47,.01,.9,.04,1.3,.03,.39,.04,.75,.04,1.06,.58-1.52,1.23-3.17,1.97-4.96,.73-1.78,1.57-3.54,2.52-5.27,.94-1.73,1.99-3.3,3.15-4.72s2.41-2.56,3.78-3.42c1.36-.87,2.88-1.3,4.56-1.3,1.57,0,2.8,.38,3.7,1.14,.89,.76,1.55,1.69,1.97,2.79,.42,1.1,.63,2.23,.63,3.38,0,1.68-.28,3.26-.83,4.76-.55,1.49-1.12,2.92-1.69,4.29-.58,1.36-.87,2.67-.87,3.93,0,1.05,.22,1.78,.67,2.2,.44,.42,.98,.63,1.61,.63,1.21,0,2.56-.58,4.05-1.73s2.99-2.69,4.48-4.6c1.49-1.91,2.79-4,3.89-6.25l1.1,1.1c-1.15,2.57-2.53,4.92-4.13,7.04-1.6,2.12-3.34,3.8-5.23,5.03s-3.91,1.85-6.06,1.85c-1.84,0-3.24-.49-4.21-1.46-.97-.97-1.46-2.19-1.46-3.66,0-1.1,.21-2.33,.63-3.7,.42-1.36,.83-2.74,1.22-4.13,.39-1.39,.59-2.69,.59-3.89,0-1.36-.29-2.31-.87-2.83-.58-.52-1.29-.79-2.12-.79-1.31,0-2.49,.51-3.54,1.53s-1.99,2.36-2.83,4.01c-.84,1.65-1.64,3.4-2.4,5.23-1.34,3.24-2.07,4.83-2.2,5.19-.49,1.4-.77,2.42-1.66,3.75-.24,.36-1.61,2.4-2.46,2.11-.18-.06-.28-.2-.33-.28Zm6.29-27.84c1.47-1.15,2.87-2.61,4.21-4.36s2.58-3.6,3.74-5.54c1.15-1.94,2.19-3.84,3.11-5.7,.92-1.86,1.62-3.55,2.12-5.07,.5-1.52,.75-2.65,.75-3.38,0-.21-.01-.34-.04-.39-.03-.05-.07-.1-.12-.16-.37,0-1.1,.7-2.2,2.08-1.1,1.39-2.36,3.25-3.78,5.58-1.42,2.33-2.82,4.97-4.21,7.9-1.39,2.94-2.58,5.95-3.58,9.04Z" class="cls-3"/><path d="M344.64,449.13c-2.31,0-3.92-.72-4.84-2.16-.92-1.44-1.38-3.13-1.38-5.07,0-1.62,.26-3.32,.79-5.07,.52-1.76,1.23-3.39,2.12-4.92,.89-1.52,1.89-2.74,2.99-3.66,1.1-.92,2.2-1.38,3.3-1.38,.31,0,.64,.04,.98,.12,.34,.08,.64,.2,.9,.35-.52,.58-1.11,1.43-1.77,2.56-.66,1.13-1.27,2.39-1.85,3.78-.58,1.39-1.05,2.78-1.42,4.17-.37,1.39-.55,2.58-.55,3.58,0,1.42,.25,2.48,.75,3.18,.5,.71,1.19,1.06,2.08,1.06,1.05,0,2.31-.59,3.78-1.77,1.47-1.18,2.91-2.61,4.33-4.29-1.52-1.31-2.67-2.92-3.46-4.84-.79-1.91-1.18-4-1.18-6.25,0-1.52,.29-3.01,.87-4.48,.58-1.47,1.46-2.69,2.63-3.66,1.18-.97,2.66-1.46,4.44-1.46,2.2,0,3.7,.59,4.48,1.77,.79,1.18,1.18,2.63,1.18,4.36,0,2.04-.5,4.3-1.49,6.76-1,2.46-2.25,4.82-3.78,7.08,.84,.42,1.76,.63,2.75,.63,.84,0,1.78-.17,2.83-.51,1.05-.34,2.1-.93,3.15-1.77,1.05-.84,1.89-1.99,2.52-3.46l1.1,.87c-1.1,2.57-2.61,4.39-4.52,5.47-1.91,1.08-3.76,1.61-5.54,1.61-.68,0-1.34-.07-1.97-.2-.63-.13-1.23-.3-1.81-.51-1.78,2.25-3.77,4.17-5.98,5.74s-4.35,2.36-6.45,2.36Zm11.88-11.72c1.26-1.94,2.33-3.96,3.22-6.06,.89-2.1,1.34-4.09,1.34-5.98,0-1.42-.21-2.45-.63-3.11-.42-.66-1-.98-1.73-.98-1,0-2.04,.75-3.15,2.24s-1.65,3.37-1.65,5.62c0,1.36,.22,2.83,.67,4.4,.45,1.57,1.09,2.86,1.93,3.85Z" class="cls-3"/><path d="M371.69,468.63c-1.31,0-2.49-.37-3.54-1.1s-1.57-1.86-1.57-3.38c0-1.68,.45-3.17,1.34-4.48,.89-1.31,2.07-2.53,3.54-3.66,1.47-1.13,3.12-2.18,4.96-3.15,1.83-.97,3.7-1.9,5.58-2.79,.68-1.84,1.39-3.93,2.12-6.29,.73-2.36,1.42-4.82,2.04-7.39-1.68,2.57-3.46,4.8-5.35,6.68-1.89,1.89-3.91,2.83-6.06,2.83-1,0-1.99-.22-2.99-.67s-1.82-1.14-2.48-2.08c-.66-.94-.98-2.18-.98-3.7,0-1.42,.25-3.09,.75-5.03,.5-1.94,1.11-3.84,1.85-5.7,.73-1.86,1.51-3.39,2.32-4.6,.81-1.21,1.51-1.81,2.08-1.81,.26,0,.68,.09,1.26,.28,.58,.18,1.13,.43,1.65,.75,.52,.31,.81,.66,.87,1.02-.47,.68-1,1.64-1.57,2.87-.58,1.23-1.14,2.61-1.69,4.13-.55,1.52-1.01,2.99-1.38,4.4-.37,1.42-.55,2.65-.55,3.7,0,.89,.2,1.62,.59,2.2,.39,.58,1.09,.86,2.08,.86,1.05,0,2.19-.48,3.42-1.45,1.23-.97,2.45-2.2,3.66-3.7,1.21-1.5,2.33-3.08,3.38-4.76,.1-.47,.22-1.05,.35-1.73,.13-.68,.28-1.36,.43-2.04,.21-.79,.62-1.62,1.22-2.52,.6-.89,1.56-1.34,2.87-1.34,.32,0,.62,.01,.91,.04,.29,.03,.62,.09,.98,.2,0,.84-.25,2.4-.75,4.68-.5,2.28-1.21,4.93-2.12,7.94-.92,3.02-1.98,6.09-3.19,9.24,2.36-.94,4.73-2.48,7.12-4.6s4.31-5.04,5.78-8.77l1.1,.94c-.79,2.52-1.98,4.72-3.58,6.61-1.6,1.89-3.4,3.51-5.39,4.88-1.99,1.36-3.98,2.49-5.98,3.38-1.36,3.35-2.86,6.49-4.48,9.4-1.63,2.91-3.33,5.26-5.11,7.04-1.78,1.78-3.62,2.67-5.5,2.67Zm-.55-2.67c.84,0,2.17-1.04,4.01-3.11,1.83-2.07,3.78-5.54,5.82-10.42-1.99,1.05-3.89,2.14-5.7,3.26-1.81,1.13-3.26,2.35-4.36,3.66-1.1,1.31-1.65,2.75-1.65,4.33,0,.47,.14,.97,.43,1.49,.29,.52,.77,.79,1.46,.79Z" class="cls-3"/><path d="M404.41,449.13c-2.31,0-3.92-.72-4.84-2.16-.92-1.44-1.38-3.13-1.38-5.07,0-1.62,.26-3.32,.79-5.07,.52-1.76,1.23-3.39,2.12-4.92,.89-1.52,1.89-2.74,2.99-3.66,1.1-.92,2.2-1.38,3.3-1.38,.31,0,.64,.04,.98,.12,.34,.08,.64,.2,.9,.35-.52,.58-1.11,1.43-1.77,2.56-.66,1.13-1.27,2.39-1.85,3.78-.58,1.39-1.05,2.78-1.42,4.17-.37,1.39-.55,2.58-.55,3.58,0,1.42,.25,2.48,.75,3.18,.5,.71,1.19,1.06,2.08,1.06,1.05,0,2.31-.59,3.78-1.77,1.47-1.18,2.91-2.61,4.33-4.29-1.52-1.31-2.67-2.92-3.46-4.84-.79-1.91-1.18-4-1.18-6.25,0-1.52,.29-3.01,.87-4.48,.58-1.47,1.46-2.69,2.63-3.66,1.18-.97,2.66-1.46,4.44-1.46,2.2,0,3.7,.59,4.48,1.77,.79,1.18,1.18,2.63,1.18,4.36,0,2.04-.5,4.3-1.49,6.76-1,2.46-2.25,4.82-3.78,7.08,.84,.42,1.76,.63,2.75,.63,.84,0,1.78-.17,2.83-.51,1.05-.34,2.1-.93,3.15-1.77,1.05-.84,1.89-1.99,2.52-3.46l1.1,.87c-1.1,2.57-2.61,4.39-4.52,5.47-1.91,1.08-3.76,1.61-5.54,1.61-.68,0-1.34-.07-1.97-.2-.63-.13-1.23-.3-1.81-.51-1.78,2.25-3.77,4.17-5.98,5.74s-4.35,2.36-6.45,2.36Zm11.88-11.72c1.26-1.94,2.33-3.96,3.22-6.06,.89-2.1,1.34-4.09,1.34-5.98,0-1.42-.21-2.45-.63-3.11-.42-.66-1-.98-1.73-.98-1,0-2.04,.75-3.15,2.24s-1.65,3.37-1.65,5.62c0,1.36,.22,2.83,.67,4.4,.45,1.57,1.09,2.86,1.93,3.85Z" class="cls-3"/><path d="M433.82,448.97c-1.78,0-3.21-.81-4.29-2.44-1.08-1.62-1.61-3.49-1.61-5.58,0-1.52,.24-3.28,.71-5.27,.47-1.99,1.09-3.94,1.85-5.86,.76-1.91,1.53-3.5,2.32-4.76,.79-1.26,1.49-1.89,2.12-1.89,.26,0,.73,.16,1.42,.47,.68,.31,1.26,.73,1.73,1.26-.58,.89-1.29,2.23-2.12,4.01-.84,1.78-1.57,3.71-2.2,5.78-.63,2.07-.94,3.97-.94,5.7,0,.37,.05,.97,.16,1.81,.1,.84,.35,1.6,.75,2.28,.39,.68,.98,1.02,1.77,1.02,1,0,2.01-.51,3.03-1.53,1.02-1.02,2.07-2.33,3.15-3.93,1.07-1.6,2.12-3.32,3.15-5.15,1.02-1.83,1.95-3.62,2.79-5.35,.84-1.73,1.55-3.17,2.12-4.33,.37,.05,.88,.17,1.53,.35,.65,.18,1.24,.42,1.77,.71,.52,.29,.79,.7,.79,1.22,0,.21-.26,.89-.79,2.04-.53,1.15-1.13,2.56-1.81,4.21-.68,1.65-1.29,3.33-1.81,5.03-.52,1.7-.79,3.21-.79,4.52,0,.89,.18,1.61,.55,2.16,.37,.55,1,.83,1.89,.83,1.1,0,2.42-.5,3.97-1.49,1.55-1,3.13-2.44,4.76-4.33,1.62-1.89,3.07-4.17,4.33-6.84l1.1,.79c-1.1,2.83-2.56,5.35-4.37,7.55-1.81,2.2-3.72,3.92-5.74,5.15-2.02,1.23-4,1.85-5.94,1.85-1.42,0-2.52-.29-3.3-.87-.79-.58-1.34-1.35-1.65-2.32-.31-.97-.5-2-.55-3.11,0-.52,.04-1.05,.12-1.57,.08-.52,.17-1.05,.28-1.57-.94,1.63-1.95,3.16-3.03,4.6-1.08,1.44-2.21,2.61-3.42,3.5-1.21,.89-2.46,1.34-3.77,1.34Z" class="cls-3"/><path d="M470.29,448.23c-2.25,0-4.02-.67-5.31-2-1.29-1.34-1.93-3.32-1.93-5.94,0-2.25,.42-5.05,1.26-8.38,.84-3.33,1.91-6.75,3.22-10.26-.47-.1-.94-.2-1.42-.28s-.94-.2-1.42-.35v-1.73c.58,.05,1.15,.11,1.73,.16,.58,.05,1.21,.11,1.89,.16,1.1-2.83,2.28-5.56,3.54-8.18,1.26-2.62,2.52-4.97,3.77-7.04,1.26-2.07,2.45-3.71,3.58-4.92,1.13-1.21,2.11-1.81,2.95-1.81,.42,0,.83,.16,1.22,.47,.39,.31,.59,.79,.59,1.42,0,.94-.55,2.41-1.65,4.4-1.1,1.99-2.45,4.35-4.05,7.08-1.6,2.73-3.16,5.66-4.68,8.81h2.75c1.94,0,3.85-.03,5.74-.08,1.89-.05,3.8-.18,5.74-.39v1.81c-2.88,.26-5.48,.47-7.79,.63-2.31,.16-4.43,.26-6.37,.31h-1.1c-1.15,2.67-2.15,5.44-2.99,8.3-.84,2.86-1.26,5.65-1.26,8.38,0,2.2,.34,3.77,1.02,4.72,.68,.94,1.78,1.42,3.3,1.42,2.73,0,5.41-1.19,8.06-3.58,2.65-2.38,4.99-5.65,7.04-9.79l1.02,.79c-1.31,2.99-2.94,5.69-4.88,8.1-1.94,2.41-4.08,4.31-6.41,5.7-2.33,1.39-4.73,2.08-7.2,2.08Z" class="cls-3"/><path d="M298.72,406.06c2.57-1.99,4.93-4.02,7.08-6.09,2.15-2.07,3.89-4.08,5.23-6.02,1.34-1.94,2-3.72,2-5.35,0-.42-.07-1.03-.2-1.85-.13-.81-.38-1.43-.75-1.85-1.68,2.57-3.72,5.22-6.13,7.94-2.41,2.73-4.97,5.35-7.67,7.86-2.7,2.52-5.34,4.8-7.9,6.84-1.42,1.15-2.65,2.12-3.7,2.91-1.05,.79-1.91,1.6-2.59,2.44l6.37-20.6c.16-.47,.29-1,.39-1.57,.1-.58,.16-1.15,.16-1.73,0-1-.25-1.91-.75-2.75-.5-.84-1.53-1.26-3.11-1.26s-3.2,.45-5.03,1.34c-1.84,.89-3.59,2.08-5.27,3.58-1.68,1.49-3.04,3.15-4.09,4.95-1.05,1.81-1.57,3.61-1.57,5.39,0,1.31,.39,2.41,1.18,3.3,.79,.89,2.12,1.34,4.01,1.34-.31-.89-.47-1.89-.47-2.99,0-1.26,.25-2.7,.75-4.33,.5-1.62,1.21-3.2,2.12-4.72,.92-1.52,1.95-2.78,3.11-3.77,1.15-1,2.36-1.49,3.62-1.49,.68,0,1.15,.16,1.42,.47,.26,.31,.39,.73,.39,1.26,0,.63-.13,1.3-.39,2.01-.26,.71-.47,1.27-.63,1.69-2.52,7.24-4.68,13.5-6.49,18.8-1.81,5.3-3.37,9.84-4.68,13.64-1.31,3.8-2.44,7.03-3.38,9.67-.94,2.65-1.77,4.92-2.48,6.8-.71,1.89-2.67,2.96-3.4,4.49,1.6,1.19,3.55,1.29,4.55,1.19,1-.11,1.7-.38,2.56-.91,.86-.52,1.31-2.15,1.68-3.35l7.47-24.22c1,2.1,2.21,4.44,3.66,7.04,1.44,2.59,3,5.19,4.68,7.79,1.68,2.6,3.38,4.99,5.11,7.2,1.73,2.2,3.37,3.97,4.92,5.31,1.55,1.34,2.92,2.31,4.12,2.31,.89,0,1.81,.11,3.09-1.43,2.98-3.6,1.34-3.2,1.76-3.93-3.41-2.78-6.76-3.13-9.17-5.52-2.41-2.39-4.52-4.72-6.33-7-1.81-2.28-3.47-4.61-4.99-7-1.52-2.38-3.07-4.89-4.64-7.51,1.99-1.31,4.25-2.86,6.76-4.64,2.52-1.78,5.06-3.67,7.63-5.66Z" class="cls-3"/><text class="cls-1" transform="translate(266.87 481.81)"><tspan x="0" y="0">Elegence in Every Stitch</tspan></text><g><path d="M206.31,411.25c-1.41-4.26-2.75-8.06-3.91-11.92-.8-2.67,.37-5.06,3.01-5.95,9.5-3.22,19.02-6.38,28.57-9.43,3.45-1.1,5.59,.73,6.72,5.54-11.3,7.15-22.69,14.36-34.39,21.77Z" class="cls-2"/><path d="M215.88,439.62c11.3-7.14,22.68-14.34,34.38-21.73,1.41,4.27,2.95,8.29,4.03,12.43,.64,2.46-.62,4.54-3.09,5.37-9.5,3.21-19.01,6.38-28.56,9.43-3.46,1.11-5.59-.69-6.75-5.5Z" class="cls-2"/><path d="M212.61,430.07l-3.05-9.24c11.39-7.21,22.76-14.41,34.34-21.73l3.05,9.23c-11.28,7.14-22.72,14.38-34.34,21.74Z" class="cls-2"/><path d="M226.04,375.96l-18.57,6.13c-.87-2.91-.07-4.94,2.58-5.93,3.29-1.23,6.64-2.35,10.02-3.3,2.63-.75,4.56,.36,5.96,3.1Z" class="cls-2"/></g></g></g></svg>