<svg xmlns="http://www.w3.org/2000/svg" width="80" height="48" fill="none" viewBox="0 0 80 48"><path fill="#8C236C" d="M30.3883 0C31.1611 0.291383 31.9955 0.477606 32.6934 0.891677C34.8135 2.14922 36.0023 4.06402 36.4228 6.47176C36.7355 8.27264 36.7597 10.0823 36.4603 11.8744C36.1631 13.6512 35.7536 15.4082 35.3815 17.2288C36.665 17.805 37.79 18.7098 38.7543 19.825C40.0136 21.2797 41.1254 23.2646 41.973 24.9713C42.77 26.575 43.4348 28.2444 44.1547 29.8854C44.2054 29.9993 44.2472 30.1176 44.2714 30.2403C44.3551 30.6587 44.1591 31.0268 43.8003 31.1517C43.4348 31.2787 43.0562 31.121 42.8712 30.7179C42.6885 30.3213 42.552 29.9051 42.3869 29.502C41.3411 26.9387 40.0378 24.0949 38.4263 21.8252C37.3255 20.2741 36.2115 19.2882 34.8355 18.6595C34.7232 18.9771 34.6198 19.297 34.4987 19.6081C33.4353 22.3379 32.3609 25.0655 31.3064 27.7975C30.1968 30.6719 29.6288 33.6405 29.8269 36.7252C29.915 38.0989 30.155 39.4572 30.8529 40.6753C31.073 41.0587 31.4033 41.3873 31.7181 41.7094C32.0858 42.084 32.1584 42.4893 31.8634 42.8267C31.5904 43.1378 31.1523 43.1619 30.767 42.8705C29.7697 42.1169 29.2633 41.0433 28.9023 39.9019C28.1714 37.5796 28.1714 35.2069 28.4598 32.8123C28.8428 29.629 30.0977 26.7218 31.2756 23.7817C31.9999 21.9742 32.6516 20.1383 33.3406 18.3155C33.4177 18.1139 33.4859 17.9518 33.2174 17.8182C31.379 16.8958 29.5892 15.8924 27.9688 14.5494C27.8389 14.705 27.7289 14.832 27.6232 14.9635C19.0327 25.6702 10.4421 36.379 1.85163 47.0857C1.67551 47.3048 1.49057 47.5173 1.30124 47.7276C1.02164 48.0343 0.651776 48.0475 0.301727 47.9358C0.048547 47.8547 -0.0813461 47.2391 0.0551511 46.9126C0.138811 46.7133 0.262099 46.527 0.378782 46.343C7.93456 34.3854 15.4925 22.4299 23.0505 10.4744C23.1166 10.3693 23.176 10.2575 23.2509 10.1568C24.0302 9.14241 24.3737 8.06232 24.3186 6.7259C24.2482 5.04771 24.7259 3.4243 25.754 2.01997C26.5356 0.950832 27.5549 0.256332 28.8957 0.0744914C28.9551 0.065728 29.0102 0.0262902 29.0652 0H30.3861H30.3883ZM33.9219 16.4861C34.7981 13.4211 35.4299 10.3978 35.016 7.2539C34.743 5.16821 33.9241 3.38705 32.0505 2.24124C30.9563 1.57084 29.7851 1.2707 28.506 1.69791C26.5752 2.34202 25.7232 5.21422 25.8817 6.49806C26.562 6.09056 27.2357 5.54942 28.0063 5.25365C30.0625 4.46495 31.9801 6.10151 31.5133 8.23978C31.3196 9.12488 30.9784 9.99684 30.5689 10.8075C30.1153 11.7035 29.5099 12.5229 28.9551 13.3992C30.4412 14.6524 32.1342 15.5857 33.9219 16.4861ZM27.4471 11.8678C28.0151 11.1755 28.5743 10.5599 29.0498 9.8873C29.3602 9.44913 29.6024 8.94085 29.7719 8.43038C30.0163 7.69426 29.5958 6.97128 28.8693 6.77629C28.3189 6.62732 27.8103 6.7982 27.4471 7.19255C26.9627 7.71836 26.5488 8.30989 26.1217 8.88389C26.0601 8.96495 26.0557 9.12489 26.0843 9.23005C26.3507 10.1699 26.7756 11.0309 27.4449 11.8678H27.4471ZM25.0385 10.9696C24.5498 12.3783 24.0941 13.6972 23.6361 15.0139C23.6736 15.0358 23.711 15.0599 23.7484 15.0818C24.6026 14.361 25.4546 13.638 26.2934 12.9282C25.8751 12.2753 25.4899 11.675 25.0385 10.9674V10.9696Z"/><path fill="#8C236C" d="M39.7873 43.2345C39.6023 42.9672 39.3249 42.8752 39.2589 42.6737C39.1378 42.3012 39.0762 41.8718 39.0762 41.3898C39.0762 40.8509 39.1664 40.2002 39.3448 39.4422C39.5231 38.6841 39.7653 37.8888 40.0713 37.0563C40.3773 36.2238 40.7185 35.4088 41.0928 34.6091C41.4671 33.8117 42.8695 31.4784 42.8717 30.716C42.8717 28.8384 42.2332 29.6491 43.1733 30.7905C43.5079 31.1958 43.4815 30.2778 43.7457 30.2778C43.9659 30.2778 44.0561 29.6337 44.153 29.8857C44.2499 30.1376 44.8157 30.4838 44.9103 31.4149C44.9411 31.7238 44.8377 32.1094 44.6946 32.5695C44.5493 33.0295 44.3511 33.5203 44.0979 34.0417C43.8448 34.5631 43.5498 35.0758 43.2151 35.5753C42.8805 36.0748 42.515 36.5349 42.1165 36.9533C41.7181 37.3718 41.3174 37.7026 40.9145 37.9436C40.7648 38.3007 40.6437 38.6732 40.5512 39.0631C40.4588 39.4531 40.3927 39.8299 40.3531 40.1914C40.3135 40.5529 40.2914 40.8837 40.2914 41.1817C40.2914 41.2847 40.2936 41.3789 40.3002 41.4665C40.3068 41.5519 40.3091 41.6308 40.3091 41.6987C40.4367 41.3657 40.5798 41.0042 40.7428 40.6121C40.9035 40.2221 41.0884 39.8365 41.2976 39.4575C41.5045 39.0785 41.7357 38.7345 41.991 38.4234C42.2464 38.1123 42.5216 37.8626 42.8232 37.6741C43.1227 37.4835 43.4573 37.3893 43.8272 37.3893C44.1728 37.3893 44.4436 37.4726 44.6417 37.6391C44.8377 37.8056 44.983 38.0093 45.0754 38.2503C45.1679 38.4913 45.2141 38.7389 45.2141 38.9908C45.2141 39.3589 45.1525 39.7051 45.0314 40.0337C44.9103 40.3601 44.7848 40.6734 44.6593 40.9736C44.5317 41.2715 44.4678 41.5585 44.4678 41.8346C44.4678 42.0646 44.5162 42.2245 44.6153 42.3165C44.7122 42.4086 44.8311 42.4546 44.9698 42.4546C45.2362 42.4546 45.5334 42.3275 45.8614 42.0756C46.1894 41.8236 46.5197 41.4862 46.8477 41.0678C47.1757 40.6493 47.4619 40.1914 47.7041 39.6985L47.9463 39.9395C47.6931 40.5025 47.3893 41.0174 47.037 41.4818C46.6848 41.9463 46.3017 42.3144 45.8856 42.5838C45.4695 42.8533 45.0248 42.9891 44.5515 42.9891C44.1464 42.9891 43.8382 42.8818 43.6246 42.6693C43.4111 42.4568 43.3032 42.1895 43.3032 41.8674C43.3032 41.6264 43.3494 41.357 43.4419 41.0568C43.5343 40.7589 43.6246 40.4565 43.7105 40.152C43.7963 39.8475 43.8404 39.5627 43.8404 39.2998C43.8404 39.0018 43.7765 38.7937 43.6488 38.6797C43.5211 38.5658 43.3648 38.5067 43.1821 38.5067C42.8937 38.5067 42.6339 38.6184 42.4027 38.8419C42.1716 39.0653 41.9646 39.3589 41.7797 39.7204C41.5948 40.0819 41.4186 40.4653 41.2513 40.8662C40.9563 41.576 40.7956 41.9244 40.767 42.0033C40.6591 42.31 40.5975 42.5334 40.4015 42.8248C40.3487 42.9037 40.0471 43.3506 39.8599 43.2871C39.8203 43.2739 39.7983 43.2433 39.7873 43.2257V43.2345ZM41.1721 37.1352C41.4957 36.8832 41.8039 36.5634 42.0989 36.18C42.3939 35.7966 42.6669 35.3913 42.9223 34.9662C43.1755 34.5412 43.4045 34.125 43.607 33.7175C43.8095 33.31 43.9636 32.9397 44.0737 32.6067C44.1838 32.2737 44.2388 32.0261 44.2388 31.8662C44.2388 31.8202 44.2366 31.7917 44.23 31.7808C44.2234 31.7698 44.2146 31.7589 44.2036 31.7457C44.1222 31.7457 43.9614 31.8991 43.7193 32.2014C43.4771 32.5059 43.1997 32.9134 42.8871 33.4239C42.5745 33.9344 42.2662 34.5127 41.9602 35.1547C41.6542 35.7988 41.3922 36.4582 41.1721 37.1352Z"/><path fill="#8C236C" d="M48.2756 43.5678C47.7671 43.5678 47.4126 43.41 47.2101 43.0945C47.0075 42.7791 46.9062 42.4088 46.9062 41.9838C46.9062 41.6289 46.9635 41.2564 47.0802 40.873C47.1947 40.4874 47.351 40.1303 47.5469 39.7951C47.7428 39.4621 47.963 39.1948 48.2052 38.9933C48.4473 38.7917 48.6895 38.6909 48.9317 38.6909C48.9999 38.6909 49.0726 38.6997 49.1474 38.7172C49.2223 38.7348 49.2883 38.761 49.3456 38.7939C49.2311 38.921 49.1012 39.1072 48.9559 39.3548C48.8106 39.6023 48.6763 39.8784 48.5486 40.1829C48.4209 40.4874 48.3174 40.792 48.236 41.0965C48.1545 41.401 48.1149 41.6617 48.1149 41.8808C48.1149 42.1919 48.1699 42.4241 48.28 42.5775C48.3901 42.7331 48.542 42.8097 48.7379 42.8097C48.9691 42.8097 49.2465 42.6805 49.5701 42.422C49.8938 42.1634 50.2108 41.8501 50.5234 41.4821C50.1888 41.1951 49.9356 40.8424 49.7617 40.4217C49.5878 40.0033 49.5019 39.5454 49.5019 39.0524C49.5019 38.7194 49.5657 38.393 49.6934 38.0709C49.8211 37.7489 50.0149 37.4816 50.2724 37.2691C50.5322 37.0566 50.8581 36.9492 51.2499 36.9492C51.7343 36.9492 52.0645 37.0785 52.2362 37.337C52.4102 37.5955 52.496 37.9132 52.496 38.2922C52.496 38.7391 52.386 39.2343 52.168 39.7732C51.9478 40.3122 51.6726 40.8292 51.3358 41.3243C51.5207 41.4164 51.7233 41.4624 51.9412 41.4624C52.1262 41.4624 52.3331 41.4251 52.5643 41.3506C52.7954 41.2761 53.0266 41.1469 53.2578 40.9628C53.4889 40.7788 53.6739 40.5269 53.8126 40.2048L54.0547 40.3954C53.8126 40.9585 53.4801 41.3572 53.0596 41.5938C52.6391 41.8304 52.2318 41.9465 51.84 41.9465C51.6902 41.9465 51.5449 41.9312 51.4062 41.9027C51.2675 41.8742 51.1355 41.837 51.0078 41.791C50.6159 42.2839 50.1778 42.7046 49.6912 43.0485C49.2047 43.3925 48.7335 43.5656 48.2712 43.5656L48.2756 43.5678ZM50.8911 41.0001C51.1685 40.5751 51.404 40.1325 51.6 39.6724C51.7959 39.2124 51.895 38.7764 51.895 38.3623C51.895 38.0512 51.8488 37.8256 51.7563 37.681C51.6638 37.5364 51.5361 37.4663 51.3754 37.4663C51.1553 37.4663 50.9263 37.6306 50.6819 37.957C50.4376 38.2834 50.3187 38.6953 50.3187 39.1883C50.3187 39.4862 50.3671 39.8083 50.4662 40.1522C50.5653 40.4962 50.7062 40.7788 50.8911 40.9957V41.0001Z"/><path fill="#8C236C" d="M54.2305 47.8433C53.9421 47.8433 53.6823 47.7623 53.4511 47.6023C53.22 47.4424 53.1055 47.1948 53.1055 46.8618C53.1055 46.4938 53.2045 46.1673 53.4005 45.8803C53.5964 45.5933 53.8562 45.326 54.1798 45.0785C54.5035 44.8309 54.8667 44.6009 55.2718 44.3884C55.6747 44.1758 56.0864 43.9721 56.5003 43.7771C56.65 43.374 56.8063 42.9161 56.967 42.3991C57.1277 41.882 57.2796 41.3431 57.4161 40.78C57.0463 41.3431 56.6544 41.8316 56.2383 42.2435C55.8222 42.6576 55.3775 42.8635 54.9042 42.8635C54.684 42.8635 54.466 42.8153 54.2459 42.7167C54.0257 42.6182 53.8452 42.467 53.6999 42.261C53.5546 42.0551 53.4841 41.7834 53.4841 41.4504C53.4841 41.1393 53.5392 40.7735 53.6493 40.3484C53.7593 39.9234 53.8936 39.5071 54.0565 39.0996C54.2173 38.6921 54.389 38.3569 54.5673 38.0919C54.7456 37.8268 54.8997 37.6953 55.0252 37.6953C55.0825 37.6953 55.1749 37.715 55.3026 37.7567C55.4303 37.7961 55.5514 37.8509 55.6659 37.921C55.7804 37.9889 55.8442 38.0656 55.8574 38.1444C55.754 38.2934 55.6373 38.5037 55.5118 38.7732C55.3841 39.0427 55.2608 39.345 55.1397 39.678C55.0186 40.011 54.9174 40.3331 54.8359 40.642C54.7544 40.9531 54.7148 41.2226 54.7148 41.4526C54.7148 41.6476 54.7589 41.8075 54.8447 41.9346C54.9306 42.0617 55.0847 42.123 55.3026 42.123C55.5338 42.123 55.7848 42.0179 56.0556 41.8053C56.3264 41.5928 56.595 41.3234 56.8613 40.9947C57.1277 40.6661 57.3743 40.3199 57.6055 39.9519C57.6275 39.8489 57.6539 39.7218 57.6825 39.5729C57.7111 39.4239 57.7442 39.2749 57.7772 39.1259C57.8234 38.9529 57.9137 38.771 58.0458 38.5738C58.1779 38.3789 58.3892 38.2803 58.6776 38.2803C58.7481 38.2803 58.8141 38.2825 58.878 38.289C58.9418 38.2956 59.0145 38.3088 59.0937 38.3329C59.0937 38.5169 59.0387 38.8587 58.9286 39.3582C58.8185 39.8577 58.6622 40.4383 58.4619 41.0977C58.2593 41.7593 58.026 42.4319 57.7596 43.122C58.2792 42.9161 58.8009 42.5787 59.3271 42.1143C59.8533 41.6498 60.276 41.0101 60.5996 40.1929L60.8418 40.3988C60.6679 40.9509 60.4059 41.4329 60.0536 41.847C59.7014 42.261 59.3051 42.616 58.867 42.9161C58.4289 43.2141 57.9907 43.4616 57.5504 43.6566C57.251 44.3905 56.9208 45.0785 56.5641 45.716C56.2053 46.3535 55.831 46.8684 55.4391 47.2584C55.0473 47.6483 54.6422 47.8433 54.2283 47.8433H54.2305ZM54.1094 47.2584C54.2943 47.2584 54.5871 47.0305 54.9922 46.577C55.3951 46.1235 55.8244 45.3633 56.2735 44.2941C55.8354 44.5242 55.4171 44.763 55.0186 45.0084C54.6201 45.2559 54.3009 45.5232 54.0588 45.8102C53.8166 46.0972 53.6955 46.4127 53.6955 46.7588C53.6955 46.8618 53.7263 46.9714 53.7902 47.0853C53.854 47.1992 53.9597 47.2584 54.1116 47.2584H54.1094Z"/><path fill="#8C236C" d="M61.4358 43.5678C60.9272 43.5678 60.5728 43.41 60.3702 43.0945C60.1677 42.7791 60.0664 42.4088 60.0664 41.9838C60.0664 41.6289 60.1236 41.2564 60.2403 40.873C60.3548 40.4874 60.5111 40.1303 60.7071 39.7951C60.903 39.4621 61.1232 39.1948 61.3653 38.9933C61.6075 38.7917 61.8497 38.6909 62.0919 38.6909C62.1601 38.6909 62.2327 38.6997 62.3076 38.7172C62.3825 38.7348 62.4485 38.761 62.5057 38.7939C62.3913 38.921 62.2614 39.1072 62.1161 39.3548C61.9708 39.6023 61.8365 39.8784 61.7088 40.1829C61.5811 40.4874 61.4776 40.792 61.3962 41.0965C61.3147 41.401 61.2751 41.6617 61.2751 41.8808C61.2751 42.1919 61.3301 42.4241 61.4402 42.5775C61.5503 42.7331 61.7022 42.8097 61.8981 42.8097C62.1293 42.8097 62.4067 42.6805 62.7303 42.422C63.0539 42.1634 63.371 41.8501 63.6836 41.4821C63.3489 41.1951 63.0958 40.8424 62.9218 40.4217C62.7479 40.0033 62.6621 39.5454 62.6621 39.0524C62.6621 38.7194 62.7259 38.393 62.8536 38.0709C62.9813 37.7489 63.175 37.4816 63.4326 37.2691C63.6924 37.0566 64.0182 36.9492 64.4101 36.9492C64.8944 36.9492 65.2247 37.0785 65.3964 37.337C65.5703 37.5955 65.6562 37.9132 65.6562 38.2922C65.6562 38.7391 65.5461 39.2343 65.3282 39.7732C65.108 40.3122 64.8328 40.8292 64.496 41.3243C64.6809 41.4164 64.8834 41.4624 65.1014 41.4624C65.2863 41.4624 65.4933 41.4251 65.7244 41.3506C65.9556 41.2761 66.1868 41.1469 66.4179 40.9628C66.6491 40.7788 66.834 40.5269 66.9727 40.2048L67.2149 40.3954C66.9727 40.9585 66.6403 41.3572 66.2198 41.5938C65.7993 41.8304 65.392 41.9465 65.0001 41.9465C64.8504 41.9465 64.7051 41.9312 64.5664 41.9027C64.4277 41.8742 64.2956 41.837 64.1679 41.791C63.776 42.2839 63.3379 42.7046 62.8514 43.0485C62.3648 43.3925 61.8937 43.5656 61.4314 43.5656L61.4358 43.5678ZM64.0512 41.0001C64.3286 40.5751 64.5642 40.1325 64.7601 39.6724C64.9561 39.2124 65.0552 38.7764 65.0552 38.3623C65.0552 38.0512 65.0089 37.8256 64.9165 37.681C64.824 37.5364 64.6963 37.4663 64.5356 37.4663C64.3154 37.4663 64.0865 37.6306 63.8421 37.957C63.5977 38.2834 63.4788 38.6953 63.4788 39.1883C63.4788 39.4862 63.5273 39.8083 63.6263 40.1522C63.7254 40.4962 63.8663 40.7788 64.0512 40.9957V41.0001Z"/><path fill="#8C236C" d="M67.9103 43.5352C67.5184 43.5352 67.2035 43.3577 66.9658 43.0006C66.728 42.6457 66.6113 42.236 66.6113 41.7781C66.6113 41.4451 66.6642 41.0595 66.7676 40.6236C66.8711 40.1876 67.0076 39.7604 67.1749 39.3397C67.3422 38.9213 67.5118 38.5729 67.6857 38.2969C67.8596 38.0208 68.0137 37.8828 68.1524 37.8828C68.2097 37.8828 68.3131 37.9179 68.465 37.9858C68.6148 38.0537 68.7424 38.1457 68.8459 38.2618C68.7182 38.4568 68.5619 38.7504 68.3792 39.1404C68.1943 39.5303 68.0335 39.9532 67.8948 40.4067C67.7561 40.8602 67.6879 41.2764 67.6879 41.6555C67.6879 41.7365 67.6989 41.868 67.7231 42.052C67.7451 42.236 67.8002 42.4025 67.8882 42.5515C67.9741 42.7005 68.104 42.775 68.2779 42.775C68.4981 42.775 68.7204 42.6632 68.945 42.4398C69.1695 42.2163 69.4007 41.9293 69.6385 41.5788C69.8741 41.2282 70.1052 40.8514 70.332 40.4505C70.5565 40.0496 70.7613 39.6574 70.9462 39.2784C71.1311 38.8994 71.2875 38.5839 71.4129 38.3297C71.4944 38.3407 71.6067 38.367 71.7498 38.4064C71.8929 38.4459 72.0228 38.4984 72.1395 38.562C72.2539 38.6255 72.3134 38.7153 72.3134 38.8293C72.3134 38.8753 72.2561 39.0242 72.1395 39.2762C72.0228 39.5281 71.8907 39.837 71.741 40.1985C71.5913 40.56 71.457 40.9281 71.3425 41.3005C71.228 41.673 71.1686 42.0038 71.1686 42.2908C71.1686 42.4858 71.2082 42.6435 71.2897 42.764C71.3711 42.8845 71.5098 42.9459 71.7058 42.9459C71.9479 42.9459 72.2385 42.8363 72.5798 42.6194C72.921 42.4003 73.2689 42.0849 73.6277 41.6708C73.9844 41.2567 74.3036 40.7572 74.581 40.1722L74.8232 40.3453C74.581 40.9653 74.2596 41.5174 73.8611 41.9994C73.4626 42.4814 73.0421 42.8582 72.5974 43.1277C72.1527 43.3972 71.7168 43.533 71.2897 43.533C70.977 43.533 70.7349 43.4695 70.5631 43.3424C70.3892 43.2153 70.2681 43.0466 70.1999 42.8341C70.1316 42.6216 70.0898 42.396 70.0788 42.1528C70.0788 42.0388 70.0876 41.9227 70.1052 41.8088C70.1228 41.6949 70.1426 41.5788 70.1669 41.4648C69.9599 41.822 69.7376 42.1572 69.4998 42.4726C69.262 42.7881 69.0132 43.0444 68.7468 43.2394C68.4805 43.4344 68.2053 43.533 67.9169 43.533L67.9103 43.5352Z"/><path fill="#8C236C" d="M75.9377 43.3721C75.4423 43.3721 75.0527 43.2253 74.7687 42.9339C74.4847 42.6403 74.3438 42.2066 74.3438 41.6326C74.3438 41.1396 74.4362 40.5262 74.6211 39.7966C74.8061 39.0671 75.0416 38.3178 75.3301 37.5488C75.2266 37.5269 75.1231 37.505 75.0174 37.4875C74.9118 37.4699 74.8105 37.4436 74.7048 37.4108V37.0318C74.8325 37.0427 74.958 37.0559 75.0857 37.0668C75.2134 37.0778 75.3521 37.0909 75.5018 37.1019C75.7439 36.4819 76.0037 35.8838 76.2811 35.3098C76.5585 34.7358 76.8359 34.2209 77.1111 33.7674C77.3885 33.3139 77.6505 32.9546 77.8993 32.6895C78.1481 32.4244 78.3638 32.293 78.5487 32.293C78.6412 32.293 78.7315 32.328 78.8173 32.3959C78.9032 32.4639 78.9472 32.569 78.9472 32.707C78.9472 32.913 78.8261 33.235 78.584 33.671C78.3418 34.107 78.0446 34.624 77.6923 35.2221C77.3401 35.8202 76.9966 36.4622 76.662 37.1523H77.2674C77.6945 37.1523 78.115 37.1457 78.5311 37.1347C78.9472 37.1238 79.3677 37.0953 79.7948 37.0493V37.4458C79.1608 37.5028 78.5884 37.5488 78.0798 37.5839C77.5712 37.6189 77.1045 37.6408 76.6774 37.6518H76.4352C76.1821 38.2367 75.9619 38.8436 75.777 39.4702C75.592 40.0968 75.4996 40.708 75.4996 41.3061C75.4996 41.7881 75.5744 42.1321 75.7241 42.3402C75.8738 42.5461 76.116 42.6513 76.4507 42.6513C77.0517 42.6513 77.6417 42.3906 78.2251 41.867C78.8085 41.3455 79.3237 40.6291 79.775 39.7221L79.9996 39.8952C79.7112 40.5503 79.3523 41.1418 78.9252 41.6698C78.4981 42.1978 78.027 42.6141 77.514 42.9186C77.001 43.2231 76.4727 43.3743 75.9289 43.3743L75.9377 43.3721Z"/><path fill="#8C236C" d="M38.1657 34.1319C38.7315 33.6959 39.2511 33.2512 39.7245 32.7977C40.1978 32.3442 40.5809 31.9038 40.8759 31.4788C41.1709 31.0538 41.3162 30.6638 41.3162 30.3067C41.3162 30.2147 41.3008 30.0811 41.2722 29.9014C41.2435 29.7239 41.1885 29.5881 41.107 29.4961C40.7372 30.0591 40.2881 30.6397 39.7575 31.2356C39.2269 31.8337 38.6633 32.4077 38.0689 32.9576C37.4745 33.5097 36.8932 34.0092 36.3296 34.4562C36.017 34.7081 35.7462 34.9206 35.5151 35.0937C35.2839 35.2668 35.0946 35.4442 34.9449 35.6283L36.3472 31.1151C36.3825 31.0122 36.4111 30.896 36.4331 30.7712C36.4551 30.6441 36.4683 30.5192 36.4683 30.3921C36.4683 30.1731 36.4133 29.9737 36.3032 29.7897C36.1931 29.6056 35.9664 29.5136 35.6185 29.5136C35.2707 29.5136 34.914 29.6122 34.5111 29.8072C34.1061 30.0022 33.7208 30.2629 33.3509 30.5915C32.9811 30.918 32.6816 31.2816 32.4505 31.676C32.2193 32.0725 32.1048 32.4669 32.1048 32.8569C32.1048 33.1439 32.1907 33.3849 32.3646 33.5798C32.5385 33.7748 32.8313 33.8734 33.2474 33.8734C33.1792 33.6784 33.144 33.4593 33.144 33.2183C33.144 32.9423 33.199 32.6268 33.3091 32.2697C33.4192 31.9148 33.5755 31.5686 33.7758 31.2356C33.9784 30.9026 34.2051 30.6266 34.4605 30.4097C34.7137 30.1906 34.9801 30.0832 35.2575 30.0832C35.4072 30.0832 35.5107 30.1183 35.5701 30.1862C35.6273 30.2541 35.656 30.3461 35.656 30.4623C35.656 30.6003 35.6273 30.7471 35.5701 30.9026C35.5129 31.0582 35.4666 31.1809 35.4314 31.2729C34.8766 32.859 34.4011 34.2305 34.0026 35.3917C33.6041 36.5528 33.2607 37.5475 32.9722 38.38C32.6838 39.2125 32.4351 39.9201 32.2281 40.4985C32.0212 41.0791 31.8384 41.5764 31.6821 41.9883C31.5258 42.4024 31.0943 42.6368 30.9336 42.972C31.2858 43.2327 31.7152 43.2546 31.9353 43.2327C32.1555 43.2086 32.3096 43.1495 32.4989 43.0333C32.6882 42.9194 32.7873 42.5623 32.8688 42.2994L34.5133 36.9932C34.7335 37.4533 34.9999 37.9659 35.3191 38.5355C35.6361 39.103 35.9796 39.6726 36.3495 40.2422C36.7193 40.8118 37.0936 41.3354 37.4744 41.8196C37.8553 42.3016 38.2164 42.6894 38.5576 42.983C38.8989 43.2765 39.2005 43.489 39.4647 43.489C39.6606 43.489 39.8632 43.5131 40.145 43.1757C40.801 42.387 40.44 42.4747 40.5324 42.3147C39.7817 41.7057 39.0442 41.629 38.5136 41.1054C37.983 40.5818 37.5185 40.0713 37.12 39.5718C36.7215 39.0723 36.3561 38.5618 36.0214 38.0382C35.6868 37.5168 35.3455 36.9669 34.9999 36.3929C35.438 36.1059 35.9356 35.7663 36.4882 35.3763C37.0429 34.9864 37.6021 34.5723 38.1679 34.1363L38.1657 34.1319Z"/><path fill="#DE71AC" d="M17.8217 35.2675C17.5112 34.3342 17.2162 33.5017 16.9609 32.6561C16.7847 32.0711 17.0423 31.5475 17.6235 31.3525C19.715 30.647 21.8109 29.9547 23.9134 29.2865C24.6729 29.0455 25.1441 29.4465 25.3929 30.5003C22.9051 32.0667 20.3975 33.6463 17.8217 35.2697V35.2675Z"/><path fill="#DE71AC" d="M19.9277 41.4834C22.4155 39.9191 24.9209 38.3417 27.4967 36.7227C27.8071 37.6581 28.1462 38.5389 28.384 39.4459C28.5249 39.9848 28.2475 40.4405 27.7037 40.6224C25.6122 41.3256 23.5185 42.0201 21.416 42.6883C20.6543 42.9315 20.1853 42.5372 19.9299 41.4834H19.9277Z"/><path fill="#DE71AC" d="M19.2086 39.3944L18.5371 37.3701C21.0447 35.7905 23.5479 34.2131 26.0973 32.6094L26.7688 34.6315C24.2854 36.1958 21.7668 37.782 19.2086 39.3944Z"/><path fill="#DE71AC" d="M22.1664 27.5379L18.0781 28.8809C17.8865 28.2433 18.0626 27.7986 18.6461 27.5817C19.3704 27.3122 20.1079 27.0668 20.852 26.8587C21.431 26.6944 21.8559 26.9376 22.1642 27.5379H22.1664Z"/></svg>